<svg width="20" height="20" viewBox="0 0 20 20" fill="none" xmlns="http://www.w3.org/2000/svg">
<path d="M15.8137 3.70074C15.546 3.70074 15.3281 3.9186 15.3281 4.18629C15.3281 4.45399 15.546 4.67184 15.8137 4.67184C16.0814 4.67184 16.2992 4.45403 16.2992 4.18629C16.2992 3.91856 16.0814 3.70074 15.8137 3.70074Z" fill="white"/>
<path d="M9.99997 5.69547C7.62645 5.69547 5.69543 7.62648 5.69543 10C5.69543 12.3735 7.62645 14.3046 9.99997 14.3046C12.3735 14.3046 14.3045 12.3736 14.3045 10C14.3045 7.62652 12.3735 5.69547 9.99997 5.69547Z" fill="white"/>
<path d="M14.5173 0H5.4827C2.45953 0 0 2.45953 0 5.48273V14.5173C0 17.5405 2.45953 20 5.4827 20H14.5173C17.5405 20 20 17.5405 20 14.5173V5.48273C20 2.45953 17.5405 0 14.5173 0ZM10 15.4856C6.9752 15.4856 4.51441 13.0248 4.51441 10C4.51441 6.9752 6.97523 4.51445 10 4.51445C13.0248 4.51445 15.4856 6.97523 15.4856 10C15.4856 13.0248 13.0248 15.4856 10 15.4856ZM15.8137 5.85297C14.8947 5.85297 14.1471 5.10531 14.1471 4.18633C14.1471 3.26734 14.8947 2.51965 15.8137 2.51965C16.7327 2.51965 17.4804 3.2673 17.4804 4.18629C17.4804 5.10527 16.7327 5.85297 15.8137 5.85297Z" fill="white"/>
</svg>
