<svg width="18" height="18" viewBox="0 0 18 18" fill="none" xmlns="http://www.w3.org/2000/svg">
<path d="M3.72772 6.40072C3.72429 6.24486 3.76947 6.09181 3.85705 5.96285C3.94462 5.83388 4.07027 5.7354 4.2164 5.68111C4.36253 5.62681 4.52192 5.6194 4.67246 5.65989C4.823 5.70039 4.95712 5.78678 5.05629 5.90706L8.98792 10.4964L12.9182 5.90706C12.9793 5.82386 13.057 5.75418 13.1463 5.70238C13.2356 5.65059 13.3347 5.61779 13.4373 5.60606C13.5399 5.59432 13.6438 5.60389 13.7425 5.63417C13.8412 5.66445 13.9326 5.71479 14.011 5.78203C14.0894 5.84927 14.1529 5.93197 14.1979 6.02495C14.2428 6.11792 14.268 6.21917 14.272 6.32235C14.276 6.42554 14.2587 6.52843 14.221 6.62459C14.1834 6.72075 14.1263 6.8081 14.0534 6.88119L9.55774 12.1356C9.48732 12.2181 9.39992 12.2844 9.30142 12.3298C9.20292 12.3752 9.09571 12.3988 8.98723 12.3988C8.87875 12.3988 8.77154 12.3752 8.67304 12.3298C8.57454 12.2844 8.48705 12.2181 8.41663 12.1356L3.91665 6.88119C3.79875 6.74845 3.73172 6.5782 3.72755 6.40072H3.72772Z" fill="black"/>
</svg>
